<svg xmlns="http://www.w3.org/2000/svg" viewBox="0 0 710 290">
  <g stroke="#EAF0EC" stroke-width="1">
    <line x1="40" y1="64" x2="690" y2="64"/>
    <line x1="40" y1="110" x2="690" y2="110"/>
    <line x1="40" y1="156" x2="690" y2="156"/>
    <line x1="40" y1="202" x2="690" y2="202"/>
  </g>
  <g fill="#DCE5DF">
    <rect x="60"  y="158" width="54" height="90"  rx="3"/>
    <rect x="140" y="118" width="54" height="130" rx="3"/>
    <rect x="220" y="178" width="54" height="70"  rx="3"/>
    <rect x="300" y="98"  width="54" height="150" rx="3"/>
    <rect x="380" y="138" width="54" height="110" rx="3"/>
    <rect x="460" y="68"  width="54" height="180" rx="3"/>
    <rect x="540" y="108" width="54" height="140" rx="3"/>
  </g>
  <rect x="620" y="43" width="54" height="205" rx="3" fill="#4E9685" opacity=".55"/>
  <line x1="40" y1="248" x2="690" y2="248" stroke="#C6D2CA" stroke-width="2"/>
  <text x="365" y="280" text-anchor="middle" font-family="sans-serif" font-size="13" fill="#9AA8A0">Chart placeholder &#8212; select it, press Delete, then draw a real one with the Chart tool</text>
</svg>
